# xmcd
#
# Track frame offsets: 
#        150
#        10967
#        20987
#        33732
#        46157
#        56242
#        67690
#        76040
#        87817
#        100302
#        117252
#        135787
#        148757
#        166940
#        180697
#        202132
#        212560
#        225277
#        240032
#        255617
#        272940
#
# Disc length: 3858 seconds
#
# Revision: 16
# Processed by: cddbd v1.5.2PL0 Copyright (c) Steve Scherf et al.
# Submitted via: ExactAudioCopy v1.0b4
#
DISCID=160f1015
DTITLE=Johnny Cash - The Legend Of Johnny Cash
DYEAR=2005
DGENRE=Country
TTITLE0=Cry! Cry! Cry!
TTITLE1=Hey Porter
TTITLE2=Folsom Prison Blues
TTITLE3=I Walk The Line
TTITLE4=Get Rhythm
TTITLE5=Big River
TTITLE6=Guess Things Happen That Way
TTITLE7=Ring Of Fire
TTITLE8=Jackson
TTITLE9=A Boy Named Sue ( Live )
TTITLE10=Sunday Morning Coming Down
TTITLE11=Man In Black
TTITLE12=One Piece At A Time
TTITLE13=Highwayman
TTITLE14=The Wanderer Featuring U2
TTITLE15=Delia's Gone
TTITLE16=Rusty Cage
TTITLE17=I've Been Everywhere
TTITLE18=Give My Love To Rose
TTITLE19=The Man Comes Around ( Early Take )
TTITLE20=Hurt
EXTD=(c)2005 Universal Music /UMG Recordings /SONY BMG\nupc 6024988434
EXTD=06 YEAR: 2005
EXTT0=
EXTT1=
EXTT2=
EXTT3=
EXTT4=
EXTT5=
EXTT6=
EXTT7=
EXTT8=
EXTT9=
EXTT10=
EXTT11=
EXTT12=
EXTT13=
EXTT14=
EXTT15=
EXTT16=
EXTT17=
EXTT18=
EXTT19=
EXTT20=
PLAYORDER=
